<?xml version="1.0" encoding="UTF-8" standalone="no"?>
<svg
   width="210mm"
   height="297mm"
   viewBox="0 0 210 210"
   version="1.1"
   id="svg8"
   inkscape:version="1.1 (c68e22c387, 2021-05-23)"
   sodipodi:docname="algeria_post_2019.svg"
   xmlns:inkscape="http://www.inkscape.org/namespaces/inkscape"
   xmlns:sodipodi="http://sodipodi.sourceforge.net/DTD/sodipodi-0.dtd"
   xmlns="http://www.w3.org/2000/svg"
   xmlns:svg="http://www.w3.org/2000/svg"
   xmlns:rdf="http://www.w3.org/1999/02/22-rdf-syntax-ns#"
   xmlns:cc="http://creativecommons.org/ns#"
   xmlns:dc="http://purl.org/dc/elements/1.1/">
  <defs
     id="defs2" />
  <sodipodi:namedview
     id="base"
     pagecolor="#ffffff"
     bordercolor="#666666"
     borderopacity="1.0"
     inkscape:pageopacity="0.0"
     inkscape:pageshadow="2"
     inkscape:zoom="0.69544321"
     inkscape:cx="1000.0817"
     inkscape:cy="409.09164"
     inkscape:document-units="mm"
     inkscape:current-layer="17|Djelfa|الجلفة|ⴵⵍⴼⴰ|Ǧelfa"
     inkscape:document-rotation="0"
     showgrid="false"
     inkscape:window-width="1920"
     inkscape:window-height="1001"
     inkscape:window-x="-9"
     inkscape:window-y="-9"
     inkscape:window-maximized="1"
     inkscape:pagecheckerboard="0" />
  <metadata
     id="metadata5">
    <rdf:RDF>
      <cc:Work
         rdf:about="">
        <dc:format>image/svg+xml</dc:format>
        <dc:type
           rdf:resource="http://purl.org/dc/dcmitype/StillImage" />
        <dc:title />
      </cc:Work>
    </rdf:RDF>
  </metadata>
  <g
     class="wilaya"
     inkscape:groupmode="layer"
     inkscape:label="adrar"
     id="01|Adrar|أدرار|ⴰⴷⵔⴰⵔ|">
    <path
       style="fill:none;stroke:#000000;stroke-width:0.5px;stroke-linecap:butt;stroke-linejoin:miter;stroke-opacity:1"
       d="m 100.46498,110.19784 -0.003,-22.172023 -4.570962,-7.91713 6.453392,-6.45342 V 60.150396 l -3.162337,-0.002 -4.134597,-4.13459 h -9.622303 l -4.9579,-4.9579 H 68.900494 l -10.323219,10.32329 -6.6e-5,7.049231 0.115168,3.57762 -10.391296,10.3913 h -4.211085 l -5.71079,5.71079 h -4.92732 l 13.910678,8.03133 8.287642,-4.78487 4.169042,4.16904 h 13.050199 l 6.477561,6.477573 h 7.55409 l 8.196627,8.19663 z"
       id="path530" />
  </g>
  <g
     class="wilaya"
     inkscape:groupmode="layer"
     inkscape:label="laghouat"
     id="03|Laghouat|الأغواط|ⵍⵖⵡⴰⵜ|">
    <path
       style="fill:none;stroke:#000000;stroke-width:0.5px;stroke-linecap:butt;stroke-linejoin:miter;stroke-opacity:1"
       d="m 108.9074,8.7772116 v -2.346984 h 10.78387 l -1.34501,-2.329627 h 12.92826 l -5.50691,-5.481622 h -2.2105 l -7.75817,-7.758173 -1.99716,0.193095 -1.43658,1.436574 h -2.10474 v -7.1160496 l -1.67044,1.687139 h -1.5201 l -1.78736,1.787363 h -2.13815 v 2.1381566 h -1.53681 l -0.93544,0.935442 v 1.469983 1.904296 h 4.67722 v 4.61039899 l 3.48833,2.01398701 v 1.059614 h -1.78449 v 3.942225 z"
       id="path418" />
  </g>
  <g
     class="wilaya"
     inkscape:groupmode="layer"
     inkscape:label="bechar"
     id="08|Béchar|بشار|ⴱⴻⵛⴰⵔ|">
    <path
       style="fill:none;stroke:#000000;stroke-width:0.5px;stroke-linecap:butt;stroke-linejoin:miter;stroke-opacity:1"
       d="m 53.198415,22.524885 v 10.240832 h 25.938509 l 5.778539,5.77854 5.500233,-5.514427 -5.703488,-5.703488 V 25.665301 L 83.304344,24.25744 v -6.677038 l 2.336258,-2.336263 0.03281,-1.419757 H 80.26363 l -1.441035,1.441035 -1.499618,2e-6 -0.93893,0.02649 v 2.021226 H 60.347875 v 5.211752 z"
       id="path518" />
  </g>
  <g
     class="wilaya"
     inkscape:groupmode="layer"
     inkscape:label="tamanrasset"
     id="11|Tamanrasset|تمنراست|ⵜⴰⵎⴰⵏⵗⴰⵙⵜ|">
    <path
       style="fill:none;stroke:#000000;stroke-width:0.5px;stroke-linecap:butt;stroke-linejoin:miter;stroke-opacity:1"
       d="m 100.46498,94.717487 6.42235,-6.42234 h 1.88515 l 2.8112,2.81119 h 2.4474 l 3.50572,-3.50572 h 4.82865 v -10.6411 h 4.30786 l 2.57131,-2.57131 h 4.38239 l 5.2749,-5.2749 h 3.14692 l 7.06593,7.06594 v 11.9269 l 5.17835,5.17835 h 5.67948 v 16.842153 h 9.35861 l 4.47259,-4.47259 h 8.34382 l 2.39707,2.39708 v 10.74089 l -9.50778,9.50773 h -12.20917 l -4.2249,-4.15232 -8.09158,8.09159 h -17.58634 v 5.98684 h -6.36101 v -3.74178 h -3.15038 v -3.95899 l -5.26861,-5.26861 h -8.23385 l -9.44908,-2e-5 0.003,-15.05863 z"
       id="path569" />
  </g>
  <g
     class="wilaya"
     inkscape:groupmode="layer"
     inkscape:label="Tlemcen"
     id="13|Tlemcen|تلمسان|ⵜⵍⵎⵙⴰⵏ|">
    <path
       style="fill:none;stroke:#000000;stroke-width:0.5px;stroke-linecap:butt;stroke-linejoin:miter;stroke-opacity:1"
       d="m 77.352899,-8.3113344 -0.90723,0.90723 h -3.765184 l -1.401078,1.401074 v -3.772471 l -0.894048,-0.8940506 v -0.877713 l 0.616032,-0.616035 v -0.68326 l -3.471743,-3.471743 h 2.977472 l 2.114759,-2.114762 h 4.027356 l 1.186852,1.186855 h 0.736229 l 0.01005,2.620635 1.874208,1.874207 -1.583592,1.583592 0.668171,0.668174 z"
       id="path395" />
  </g>
  <g
     class="wilaya"
     inkscape:groupmode="layer"
     inkscape:label="Tiaret"
     id="14|Tiaret|تيارت|ⵜⵉⵀⴻⵔⵜ|">
    <path
       style="fill:none;stroke:#000000;stroke-width:0.5px;stroke-linecap:butt;stroke-linejoin:miter;stroke-opacity:1"
       d="m 95.694271,-10.432784 h 1.436573 v 2.2550856 h 1.971109 l 1.570207,1.570207 v -1.469983 l 0.93544,-0.935442 h 1.53681 v -2.1381566 h 2.13815 l 1.78736,-1.787363 h 1.5201 l 1.7122,-1.712196 2.26344,-2.280144 v -3.107008 h -2.03794 l -0.73499,0.734992 -3.05689,-3.056896 h -3.93538 l -1.49186,-1.491855 h -0.98861 l -0.789597,0.789601 -0.002,-1.419199 -1.05055,1.051248 h -1.346645 l -1.559155,1.559153 0.04725,2.639928 h -1.872165 l -1.810957,1.807257 h 1.662081 l 1.478333,1.478336 -1.186008,1.186008 v 2.004523 h 0.768403 v 1.00226 h 1.035669 z"
       id="path401" />
  </g>
  <g
     class="wilaya"
     inkscape:groupmode="layer"
     inkscape:label="saida"
     id="20|Saïda|سعيدة|ⵙⴰⵢⴷⴰ|">
    <path
       style="fill:none;stroke:#000000;stroke-width:0.5px;stroke-linecap:butt;stroke-linejoin:miter;stroke-opacity:1"
       d="m 87.843229,-10.115403 0.785103,0.7851026 h 1.653731 l 0.643117,-0.643117 h 0.826865 l 0.714111,0.714113 1.17348,-1.1734796 h 2.054635 v -1.319644 h -1.035669 v -1.00226 h -0.768401 v -2.004523 l 1.186008,-1.186008 -1.478335,-1.478336 h -1.662081 l -0.710853,0.714552 h -2.137926 l -1.004001,-1.003998 h -2.4096 l -0.0083,0.68857 -0.92887,0.928873 v 2.037929 h 0.968854 l 1.269529,1.269532 v 0.952145 h -1.186043 l -0.584655,-0.58465 v 1.570207 h 1.904296 z"
       id="path398" />
  </g>
  <g
     class="wilaya"
     inkscape:groupmode="layer"
     inkscape:label="SBA"
     id="22|Sidi Bel Abbes|سيدي بلعباس|ⵙⵉⴷⵉ ⴱⵍ ⴰⴱⴱⴰⵙ|">
    <path
       style="fill:none;stroke:#000000;stroke-width:0.5px;stroke-linecap:butt;stroke-linejoin:miter;stroke-opacity:1"
       d="m 82.972215,-20.973046 -1.055613,1.055611 h -2.124869 l -1.209355,1.209355 v 4.082505 l 1.874208,1.874207 -1.583592,1.583592 0.668173,0.668174 -2.188268,2.1882676 h 3.474503 l 0.952148,-0.952148 1.286235,1.286235 v 2.037932 l 1.018966,1.018963 1.586913,-1.586913 h 1.302938 v -1.269529 l 0.868627,-0.868627 v -1.4699816 l -0.734992,-0.734992 h -1.904296 v -1.570207 l 0.584653,0.58465 h 1.186008 v -0.952145 l -1.269529,-1.269532 h -0.968854 v -2.037929 l 0.928872,-0.928873 0.0083,-0.68857 v -2.535468 h -1.97662 z"
       id="path392" />
  </g>
  <g
     class="wilaya"
     inkscape:groupmode="layer"
     inkscape:label="maskara"
     id="29|Mascara|معسكر|ⵎⵄⵙⴽⵔ|">
    <path
       style="fill:none;stroke:#000000;stroke-width:0.5px;stroke-linecap:butt;stroke-linejoin:miter;stroke-opacity:1"
       d="m 86.602111,-24.320202 h -1.28305 l -2.346846,2.346848 v 1.000308 l 0.724578,0.724577 h 1.976622 v 2.535468 h 2.409598 l 1.004001,1.003998 h 2.137926 l 2.52181,-2.521809 h 1.872165 l -0.04725,-1.990281 h -1.405596 l -0.956752,-0.956752 h -2.4096 l -0.779574,-0.779576 v -1.362781 z"
       id="path389" />
  </g>
  <g
     class="wilaya"
     inkscape:groupmode="layer"
     inkscape:label="ouargla"
     id="30|Ouargla|ورڨلة|ⵡⵔⴳⵔⵏ|">
    <path
       style="fill:none;stroke:#000000;stroke-width:0.5px;stroke-linecap:butt;stroke-linejoin:miter;stroke-opacity:1"
       d="m 172.34808,17.462316 2.05524,1.972267 v 2.398173 l 2.22061,2.220611 v 10.420141 l -11.69146,-3e-6 -2.01017,2.010172 h -14.39289 l -3.60823,-2.083216 -2.87235,2.874366 -19.01048,19.008519 -5.74529,-5.74529 5.96338,-5.963429 v -6.24743 l 3.04019,-3.040188 v -7.416731 l 3.00678,-3.006781 V 14.105862 l 4.27631,-4.2762754 V 5.5532716 0.20788059 l 1.63703,-1.50338899 1.40316,1.40304399 4.81753,-0.0084 V 7.0299486 l 1.84751,1.847498 h 1.89427 v 4.2796544 l 4.30304,2.291834 h 2.33861 l 2.05422,2.054225 2.85785,-0.04075 z"
       id="path496" />
  </g>
  <g
     class="wilaya"
     inkscape:groupmode="layer"
     inkscape:label="Oran"
     style="display:inline"
     id="31|Oran|وهران|ⵡⵀⵔⴻⵏ|">
    <path
       style="fill:none;stroke:#000000;stroke-width:0.5px;stroke-linecap:butt;stroke-linejoin:miter;stroke-opacity:1"
       d="m 81.916602,-19.917435 h -0.270687 v -0.730057 l 0.292327,-0.292328 v -1.160952 H 80.35133 l -0.663999,0.663999 h -1.48251 v -1.975289 h 0.876977 l 0.484425,-0.484426 h 0.626415 l 0.317383,0.317384 h 1.302938 l 0.977204,-0.977205 v -1.11084 h 1.545151 l 0.618062,0.618062 h 2.361874 l -0.713139,0.728885 h -1.283052 l -2.346844,2.346848 v 1.000308 z"
       id="path406" />
  </g>
  <g
     class="wilaya"
     inkscape:groupmode="layer"
     inkscape:label="Biyed"
     id="32|El Bayadh|البيض|ⵍⴱⴻⵢⵢⴻⴹ|">
    <path
       style="fill:none;stroke:#000000;stroke-width:0.5px;stroke-linecap:butt;stroke-linejoin:miter;stroke-opacity:1"
       d="m 100.67216,-6.6074914 v 1.904296 h 4.67722 v 4.61039899 l 3.48833,2.01398701 v 1.059614 h -1.78449 v 3.942225 l 1.85418,1.854182 v 7.6004764 l -1.56185,1.561856 v 3.516265 l -7.31233,7.312327 h -3.904638 l -4.261694,4.261696 h -1.451192 l -5.703488,-5.70349 v -1.661038 l -1.407864,-1.407861 v -6.677041 l 2.33626,-2.336261 0.03281,-1.419756 v -2.669458 l 1.67727,-1.6772684 V 1.8472656 L 88.354683,0.84326459 V -4.5783304 l -1.352447,-1.352445 -0.02763,-0.57649 v -1.269529 l 0.868627,-0.868627 v -1.4699816 l 0.785103,0.7851026 h 1.653727 l 0.643117,-0.643117 h 0.826863 l 0.714113,0.714113 1.17348,-1.1734796 h 3.491206 v 2.2550856 h 1.971111 z"
       id="path415" />
  </g>
  <g
     class="wilaya"
     inkscape:groupmode="layer"
     inkscape:label="Illizi"
     id="33|Illizi|إيليزي|ⵉⵍⵍⵉⵣⵉ">
    <path
       style="fill:none;stroke:#000000;stroke-width:0.5px;stroke-linecap:butt;stroke-linejoin:miter;stroke-opacity:1"
       d="m 142.04883,37.274827 2.87235,-2.874368 3.60823,2.083218 h 14.39289 l 2.01017,-2.010172 11.69146,3e-6 v 8.289679 l 3.82701,3.82701 v 30.59131 l -4.9606,4.9606 v 5.19564 l 7.35979,4.24918 h -9.70116 l -8.20497,-8.20497 -4.6628,4.6628 -11.16644,0.0614 v -11.92691 l -7.06593,-7.06594 z"
       id="path579" />
  </g>
  <g
     class="wilaya"
     inkscape:groupmode="layer"
     inkscape:label="tindouf"
     id="37|Tindouf|تندوف|ⵜⵉⵏⴷⵓⴼ|">
    <path
       style="fill:none;stroke:#000000;stroke-width:0.5px;stroke-linecap:butt;stroke-linejoin:miter;stroke-opacity:1"
       d="m 35.358175,44.106897 -2.022647,2.02264 H 13.952434 l -8.0497096,8.049709 v 15.136771 l 9.5398976,9.5399 h 8.75705 l 9.25222,9.25222 h 4.927253 l 5.71079,-5.71079 h 4.211085 l 10.391296,-10.3913 -0.115102,-3.57762 h -5.57925 l -3.410236,-5.906701 v -4.18272 l -5.410933,-5.41094 v -5.881199 h -8.81862 z"
       id="path452" />
  </g>
  <g
     class="wilaya"
     inkscape:groupmode="layer"
     inkscape:label="tissemsilt"
     style="display:inline"
     id="38|Tissemsilt|تيسمسيلت|ⵜⵉⵙⵎⵙⵉⵍⵜ|">
    <path
       style="fill:none;stroke:#000000;stroke-width:0.5px;stroke-linecap:butt;stroke-linejoin:miter;stroke-opacity:1"
       d="m 106.73584,-22.359688 h -3.93538 l -1.49186,-1.491855 h -0.98861 l -0.789597,0.789601 v -2.11609 l 0.586177,0.338431 -0.0328,-0.8109 1.79538,-1.795388 1.11031,1.110305 0.80319,-0.803198 1.03007,1.212231 0.89416,-0.894168 h 2.0222 l 0.6505,0.6505 h 1.0491 v 0.897694 l -0.99219,0.992187 v 1.889879 z"
       id="path387" />
  </g>
  <g
     class="wilaya"
     inkscape:groupmode="layer"
     inkscape:label="Naama"
     id="45|Naâma|لنعامة|ⵏⵄⴰⵎⴰ|">
    <path
       style="fill:none;stroke:#000000;stroke-width:0.5px;stroke-linecap:butt;stroke-linejoin:miter;stroke-opacity:1"
       d="m 71.279405,-6.0030304 v 6.24389699 l 0.960014,1.66279301 v 3.487131 l 1.032597,1.788512 v 2.369227 l 4.050962,4.0509594 v 1.66593 h 1.499618 l 1.441035,-1.441034 h 5.409784 V 11.154929 L 87.350683,9.4776586 V 1.8472656 L 88.354684,0.84326459 V -4.5783304 l -1.352447,-1.352445 -0.02764,-0.57649 h -1.302938 l -1.586913,1.586913 -1.018966,-1.018963 v -2.037932 l -1.286237,-1.286235 -0.952146,0.952148 h -3.474503 l -0.907232,0.90723 H 72.68048 Z"
       id="path412" />
  </g>
  <g
     class="wilaya"
     inkscape:groupmode="layer"
     inkscape:label="AinTimouchent"
     id="46|Aïn Témouchent|عين تموشنت|ⵜⴰⵍⴰ ⵏ ⵜⵉⵎⵓⵛⴻⵏⵜ|">
    <path
       style="fill:none;stroke:#000000;stroke-width:0.5px;stroke-linecap:butt;stroke-linejoin:miter;stroke-opacity:1"
       d="m 78.204821,-23.412062 -2.046283,2.046282 v 0.927092 l -1.023141,1.023141 h -1.574384 l -0.939136,0.982482 h 4.027358 l 1.186852,1.186855 h 0.736229 l 0.01005,-1.46187 1.209355,-1.209355 h 1.854182 v -0.730057 l 0.292327,-0.292328 v -1.160952 h -1.586908 l -0.663999,0.663999 h -1.48251 z"
       id="path409" />
  </g>
  <g
     class="wilaya"
     inkscape:groupmode="layer"
     inkscape:label="ghardaia"
     id="47|Ghardaïa|غرداية|ⵜⵖⵔⴷⴰⵢⵜ|tɣrdait">
    <path
       style="fill:none;stroke:#000000;stroke-width:0.5px;stroke-linecap:butt;stroke-linejoin:miter;stroke-opacity:1"
       d="m 129.30341,14.105896 v 4.413234 h -8.92023 l -2.9766,-2.976594 h -3.20556 l -1.40652,-1.406525 h -3.8843 l -0.003,-7.7057834 h 10.78387 l -1.34501,-2.329627 h 12.92826 l 1.47318,1.452671 h 0.83202 v 4.276315 z"
       id="path499" />
  </g>
  <g
     class="wilaya"
     inkscape:groupmode="layer"
     inkscape:label="Relizane"
     style="display:inline"
     id="48|Relizane|غليزان|ⵉⵖⵉⵍ ⵉⵣⴰⵏ|iɣil izzan">
    <path
       style="fill:none;stroke:#000000;stroke-width:0.5px;stroke-linecap:butt;stroke-linejoin:miter;stroke-opacity:1"
       d="m 90.020141,-24.320202 v 1.362781 l 0.779576,0.779576 h 2.409598 l 0.956752,0.956752 h 1.405598 v -0.649647 l 1.559153,-1.559153 h 1.346545 l 1.05055,-1.051248 0.002,-0.696891 0.586177,0.338431 -0.0328,-0.8109 -1.086687,-1.086683 h -1.9135 l -1.110207,-1.110306 v -1.41741 h -1.984375 l -0.93499,0.6657 0.911368,1.578533 h -1.828977 v 1.336575 l -0.769612,0.769609 h -0.752261 z"
       id="path386" />
  </g>
  <g
     class="wilaya"
     inkscape:groupmode="layer"
     inkscape:label="timimoun"
     id="49|Timimoun||ⵜⵉⵎⵉⵎⵓⵏ|">
    <path
       style="fill:none;stroke:#000000;stroke-width:0.5px;stroke-linecap:butt;stroke-linejoin:miter;stroke-opacity:1"
       d="m 80.467278,51.055906 4.9579,4.9579 h 9.622046 l 4.134599,4.13459 3.162337,0.002 4.07024,-4.07024 5.3e-4,-13.363919 -1.63002,-1.63002 v -2.66946 l 1.12211,-1.12211 V 22.917333 l -5.87373,5.850697 h -3.904634 l -4.26176,4.261694 h -1.451192 l -5.500235,5.514423 -4.448183,4.43405 z"
       id="path524" />
  </g>
  <g
     class="wilaya"
     inkscape:groupmode="layer"
     inkscape:label="Bourdj Badji Moukhtar"
     id="50|Bourdj Badji Moukhtar||ⴱⵓⵔⵊ ⴱⴰⵊⵉ ⵎⵓⴽⵜⴰⵔ|">
    <path
       style="fill:none;stroke:#000000;stroke-width:0.5px;stroke-linecap:butt;stroke-linejoin:miter;stroke-opacity:1"
       d="m 65.341303,106.5195 -17.978734,-10.380033 8.287642,-4.78487 4.169042,4.16904 h 13.0502 l 6.477561,6.477573 h 7.554089 l 8.19663,8.19663 h 5.367247 l -0.003,15.05863 9.4494,2e-5 v 15.79303 l -7.19409,2e-5 -4.359254,-4.35927 V 132.6013 L 65.341303,113.53923 Z"
       id="path527" />
  </g>
  <g
     class="wilaya"
     inkscape:groupmode="layer"
     inkscape:label="Beni Abbes"
     id="52|Béni Abbès||ⴰⵢⵜ ⴰⴱⴻⵙ|">
    <path
       style="fill:none;stroke:#000000;stroke-width:0.5px;stroke-linecap:butt;stroke-linejoin:miter;stroke-opacity:1"
       d="m 53.198415,32.765715 h 25.938509 l 5.778537,5.778542 -4.448183,4.43405 v 8.077599 H 68.900499 l -10.323219,10.32329 -6.6e-5,7.049231 h -5.57925 l -3.410236,-5.906701 v -4.18272 l -5.410933,-5.41094 v -5.881199 h -8.81862 v -2.93997 l 9.087165,-9.087162 h 8.753075 z"
       id="path521" />
  </g>
  <g
     class="wilaya"
     inkscape:groupmode="layer"
     inkscape:label="In Salah"
     id="53|In Salah||ⴰⵉⵏ ⵙⴰⵍⴰⵃ|">
    <path
       style="fill:none;stroke:#000000;stroke-width:0.5px;stroke-linecap:butt;stroke-linejoin:miter;stroke-opacity:1"
       d="m 142.04883,37.274827 v 31.83848 h -3.14692 l -5.2749,5.2749 h -4.38239 l -2.57131,2.57131 h -4.30786 v 10.6411 h -4.82865 l -3.50572,3.50572 h -2.4474 l -2.8112,-2.81119 h -1.88515 l -6.42235,6.42234 -0.003,-6.69167 -4.570964,-7.91713 6.453394,-6.45342 V 60.150396 l 4.06999,-4.07024 5.3e-4,-3.70336 h 2.00685 l 1.83868,-1.83872 h 7.03253 l 5.74536,5.74527 z"
       id="path563" />
  </g>
  <g
     class="wilaya"
     inkscape:groupmode="layer"
     inkscape:label="in guezzam"
     id="54|In Guezzam ||ⴰⵉⵏ ⴳⵣⴰⵎ|">
    <path
       style="fill:none;stroke:#000000;stroke-width:0.5px;stroke-linecap:butt;stroke-linejoin:miter;stroke-opacity:1"
       d="m 109.91106,125.25649 h 8.23385 l 5.26861,5.26861 v 3.95899 h 3.15038 v 3.74178 h 6.36101 v -5.98684 h 7.29646 10.28988 l 8.09158,-8.09159 4.2249,4.15232 -22.14914,22.14913 h -16.40443 l -8.78972,5.07475 v -14.4981 l -5.57338,0.024 z"
       id="path566" />
  </g>
  <g
     class="wilaya"
     inkscape:groupmode="layer"
     inkscape:label="Djanet"
     id="56|Djanet||ⵊⴰⵏⴻⵜ|">
    <path
       style="fill:none;stroke:#000000;stroke-width:0.5px;stroke-linecap:butt;stroke-linejoin:miter;stroke-opacity:1"
       d="m 182.85013,91.586927 h -9.70116 l -8.20497,-8.20497 -4.6628,4.6628 -11.16644,0.0614 5.17835,5.17835 h 5.67948 v 16.842153 h 9.35861 l 4.47259,-4.47259 h 8.34382 l 2.39707,2.39708 v 10.74089 l 3.35757,-3.35757 h 5.64607 l 6.31424,-6.31424 v -2.60588 l -9.15398,-9.153983 h -7.85845 z"
       id="path576" />
  </g>
  <g
     class="wilaya"
     inkscape:groupmode="layer"
     inkscape:label="meniaa"
     id="58|El Meniaa||ⵎⵏⵉⵢⴰ ⵉⵣⴰⵏ|">
    <path
       style="fill:none;stroke:#000000;stroke-width:0.5px;stroke-linecap:butt;stroke-linejoin:miter;stroke-opacity:1"
       d="m 129.30341,18.51913 v 6.344367 l -3.00678,3.006781 v 7.416731 l -3.04019,3.040188 v 6.24743 l -5.96345,5.963449 h -7.03253 l -1.83868,1.83872 h -2.00685 l -1e-5,-9.660859 -1.63009,-1.63002 v -2.66946 l 1.12218,-1.12211 -6e-5,-14.376908 1.4386,-1.461632 v -3.516265 l 1.56185,-1.561854 0.003,-2.241677 h 3.8843 l 1.40652,1.406525 h 3.20556 l 2.9766,2.976594 z"
       id="path506" />
  </g>
  <g
     inkscape:label="Calque 1"
     inkscape:groupmode="layer"
     id="layer1"
     style="display:inline">
    <g
       id="g75"
       transform="matrix(0.26458333,0,0,0.26458333,-1.3547345,-46.1343)">
      <g
         class="wilaya"
         id="06|Béjaïa|بجاية|ⴲⴳⴰⵢⵝ|Bgayet"
         inkscape:label="BEJAIA"
         style="display:inline">
        <path
           style="display:inline;fill:none;stroke:#000000;stroke-width:2px;stroke-linecap:butt;stroke-linejoin:miter;stroke-opacity:1"
           d="m 497.6312,32.323192 0.0193,3.191442 2.73714,2.880473 -3.30044,3.362415 1.4947,1.56049 -7.23903,7.159644 0.30755,8.401011 1.77258,1.591483 3.05479,0.02873 2.07392,-1.689249 0.10888,-2.7894 9.05453,-8.12531 6.343,-0.123486 1.4221,-1.798185 2.3756,-0.0084 1.3211,1.736548 0.12695,4.426928 2.99677,2.533154 7.45149,-8.489645 -3.01769,-2.969611 -7.61648,0.05336 -3.51277,-2.96999 -0.11174,-2.003034 -10.25687,-5.897308 z"
           id="path16-2" />
      </g>
      <g
         class="wilaya"
         id="15|Tizi Ouzou|تيزي وزو|ⵝⵉⵣⵉ ⵡⴻⵣⵓ|Tizi Wezzu"
         inkscape:label="TIZI"
         style="display:inline">
        <path
           style="fill:none;stroke:#000000;stroke-width:2px;stroke-linecap:butt;stroke-linejoin:miter;stroke-opacity:1"
           d="m 473.56354,50.928563 17.77933,-0.45091 7.23903,-7.159644 -1.4947,-1.56049 3.30044,-3.362415 -2.73714,-2.880473 -0.0193,-3.191442 -19.12649,0.06584 0.002,4.153033 -9.81987,9.303328 z"
           id="path60" />
      </g>
      <g
         class="wilaya"
         id="10|Bouira|البويرة|ⵜⵓⴱⵉⵔⴻⵜ|Tubiret"
         inkscape:label="Bouira"
         style="display:inline">
        <path
           style="fill:none;stroke:#000000;stroke-width:2px;stroke-linecap:butt;stroke-linejoin:miter;stroke-opacity:1"
           d="m 491.65042,58.878667 -0.30755,-8.401014 -17.77933,0.45091 -4.8767,-5.083173 -8.65152,-0.02028 -2.59239,2.580212 -4.43022,0.0902 3.3088,4.272737 h 2.09071 l 1.40926,-1.414196 3.81827,3.236014 -3.05136,3.551435 2.04355,2.066549 -4.87514,7.449102 5.64098,4.512907 3.76695,-0.200962 3.53557,3.19437 7.62353,-0.146342 -0.16257,-5.268955 4.42691,-4.084514 0.0959,-3.515279 3.26185,-3.152191 z"
           id="path69" />
      </g>
      <g
         class="wilaya"
         id="19|Sétif|سطيف|ⵚⵟⵉⴼ|Sthif"
         inkscape:label="STIF"
         style="display:inline">
        <path
           style="fill:none;stroke:#000000;stroke-width:2px;stroke-linecap:butt;stroke-linejoin:miter;stroke-opacity:1"
           d="m 529.75213,46.171835 2.11165,2.078398 v 0 0 0 l 7.48339,-0.09261 6.93209,10.928574 -0.0125,4.261131 2.87002,2.677792 0.0842,4.265518 -4.09002,3.944534 -3.40264,-3.161156 -3.95837,4.321347 0.13937,3.054493 -5.9276,0.102275 -4.31113,4.653508 -6.99599,-0.0041 -6.00333,-5.451801 3.32194,-3.7752 -2.13948,-2.328537 2.73075,-2.964775 -0.12294,-8.248924 -2.90989,-3.010167 -9.00531,0.0625 -0.10395,-3.035413 -2.85183,-2.764498 4.12462,-3.789798 6.343,-0.123486 1.4221,-1.798185 2.3756,-0.0084 1.3211,1.736548 0.12695,4.426928 2.99677,2.533154 z"
           id="path98" />
      </g>
      <g
         class="wilaya"
         id="34|Bordj Bou Arreridj|برج بوعريريج|ⴰⴳⴰⴷⵉⵔ ⵏ ⴱⵓⵄⵉⵕⵉⵕⵉⴵ|"
         inkscape:label="Bourj">
        <path
           style="display:inline;fill:none;stroke:#000000;stroke-width:2px;stroke-linecap:butt;stroke-linejoin:miter;stroke-opacity:1"
           d="m 514.67126,77.749736 v 0 0 0 0 l -5.42572,-4.435888 -5.61836,0.133644 -1.39695,1.758267 -4.99801,0.201149 -2.22127,2.468296 -1.52544,0.05195 -0.0127,-4.079948 2.09278,-2.483288 -3.87163,-3.298038 -1.64824,1.510936 -11.88446,0.171365 4.42691,-4.084514 0.0959,-3.515279 3.26185,-3.152191 5.7045,-0.11753 1.77258,1.591483 3.05479,0.02873 2.07392,-1.689249 0.10888,-2.7894 4.92997,-4.335507 2.85183,2.764498 0.10395,3.035413 9.00531,-0.0625 2.90989,3.010167 0.12294,8.248924 -2.73075,2.964775 2.13948,2.328537 z"
           id="path223" />
      </g>
      <g
         class="wilaya"
         id="18|Jijel|جيجل|ⵉⵖⵉⵍ ⴳⵉⵍⵉ|iɣil Gili"
         inkscape:label="Jijel(Bejaia2)">
        <path
           style="fill:none;stroke:#000000;stroke-width:2px;stroke-linecap:butt;stroke-linejoin:miter;stroke-opacity:1"
           d="m 526.73444,43.202224 3.11184,-0.0026 8.92996,-7.666441 2.38725,0.02919 1.70915,1.430066 3.59739,0.07001 7.18874,-4.476942 3.89292,0.107535 4.51982,6.09605 2.84867,0.176776 1.84684,2.160304 -4.04168,4.768433 -4.68609,-3.48418 -3.48369,3.070362 -1.71888,-1.654177 -5.58669,0.02257 -4.09474,4.183252 -3.80808,0.125147 v 0 l -7.48339,0.09265 z"
           id="path242" />
      </g>
      <g
         class="wilaya"
         id="35|Boumerdès|بومرداس|ⴱⵓⵎⵔⴷⴰⵙ|Bumerdas"
         inkscape:label="Boumerdes">
        <path
           style="fill:none;stroke:#000000;stroke-width:2px;stroke-linecap:butt;stroke-linejoin:miter;stroke-opacity:1"
           d="m 457.44293,48.405322 -4.43022,0.0902 -0.50438,-0.01203 0.0335,-3.181383 -2.08986,-1.734791 1.64825,-2.09936 3.40625,-0.135929 0.0813,-2.777748 14.84293,-6.167688 8.07402,0.0024 0.002,4.153033 -9.81987,9.303328 -8.65152,-0.02028 z"
           id="path245" />
      </g>
      <g
         class="wilaya"
         id="21|Skikda|سكيكدة|ⵙⴽⵉⴽⴷⴰ|"
         inkscape:label="Skikda">
        <path
           style="fill:none;stroke:#000000;stroke-width:2px;stroke-linecap:butt;stroke-linejoin:miter;stroke-opacity:1"
           d="m 557,33 v -5 l 4,-4 h 7 v 3 l 3,3 h 8 l 2,2 h 7 l 4,-4 v -5 l 3,3 v 4 l 2,2 v 7 l -5,5 h -6 v 4 l -4,3 h -2 l -3,-3 v -2.590672 l -3.38623,0.0037 L 572,44 h -7.46949 L 566.76702,41.126172 565,39 562.07151,38.789092 557.55169,32.693042 557,32.593949 v 0"
           id="path302" />
      </g>
      <g
         class="wilaya"
         id="23|Annaba|عنابة|ⴱⵓⵏⴰ|Buna"
         inkscape:label="ANNABA">
        <path
           style="fill:none;stroke:#000000;stroke-width:2px;stroke-linecap:butt;stroke-linejoin:miter;stroke-opacity:1"
           d="m 595,41 h 4 l 1,-1 h 1.55345 l 0.0133,2.463184 L 607,42.499307 608.3882,41 l 0.0161,-3 3.10955,-4 -0.0222,-3 L 610,29.508181 605.59591,29.497696 602.50962,26.539235 602,26 h -7 v 4 l 2,2 v 7 z"
           id="path305" />
      </g>
      <g
         class="wilaya"
         id="36|El Taref|الطارف|ⴻⵍ ⵜⴰⵔⴼ|"
         inkscape:label="Taref">
        <path
           style="fill:none;stroke:#000000;stroke-width:2px;stroke-linecap:butt;stroke-linejoin:miter;stroke-opacity:1"
           d="M 608.3882,41.514087 H 610 l 2,2 v 2.370943 l 5.50435,-0.02767 -0.0117,2.987623 1.50735,0.01989 1.44521,1.649211 -0.005,2.375249 3.16407,0.01539 L 635,45.514087 v -5.505689 l 1.54069,-1.494311 H 640 l 2,-2 h 1.43336 l 0.006,-3.585948 -2.43962,0.007 v 0.915158 L 636,34 634,32.514087 h -4 l -2,-2 h -2 l -1,1 h -2 l -3,3 h -8.48615 l -3.10955,4 z"
           id="path307" />
      </g>
      <g
         class="wilaya"
         id="16|Alger|الجزائر العاصمة|ⵍⴷⵣⴰⵢⵔ|Ldzayer"
         inkscape:label="Alger">
        <path
           style="fill:none;stroke:#000000;stroke-width:2px;stroke-linecap:butt;stroke-linejoin:miter;stroke-opacity:1"
           d="M 455.58777,38.554281 451,38.401198 449.65023,40 h -0.91264 L 448,41 h -2 l -1,-1 v -1 l -3,-3 h -2 -1 l -4.55418,5 -0.0963,2 3.41073,3 H 440 l 1,1 h 1 l 1,-1 h 3.35397 l 2.02288,-2.429701 2.07512,-0.003 1.64825,-2.09936 3.40625,-0.135929 z"
           id="path326" />
      </g>
      <g
         class="wilaya"
         id="14|Tipaza|تيبازة|ⵜⵉⴼⵣⵣⴰ|"
         inkscape:label="Tipaza"
         style="display:none">
        <path
           style="fill:none;stroke:#000000;stroke-width:2px;stroke-linecap:butt;stroke-linejoin:miter;stroke-opacity:1"
           d="m 434.44582,41 -4.97001,4 H 428 l -2,1.337005 -4,0.0851 -2,-2.115379 L 414,44 402,47 h -7.60215 l 0.0514,5 L 393,53.28459 v 1.211215 l 2.46876,0.0038 -0.018,1.075733 1.06705,0.89122 L 400,53 h 3 l 1.29877,1.335249 L 412,54.345013 413,53 h 2 l 1,1.372615 8,0.01813 L 425.50417,52 h 2.92587 l 0.0205,-2 c 2.54946,-2 0,0 2.54946,-2 l 4.47279,-1 0.0275,-3 -1.15073,-1 z"
           id="path329"
           sodipodi:nodetypes="ccccccccccccccccccccccccccccccc" />
      </g>
      <g
         class="wilaya"
         id="09|Blida|بليدة|ⵍⴻⴱⵍⵉⴷⴰ|"
         inkscape:label="Blida"
         style="display:inline">
        <path
           style="fill:none;stroke:#000000;stroke-width:2px;stroke-linecap:butt;stroke-linejoin:miter;stroke-opacity:1"
           d="m 424,54.390745 1.38068,-0.0045 -0.0128,1.146284 2.63212,1.927928 1.51789,-0.0068 0.93704,-1.087342 1.54507,-0.0098 2.43115,-0.0052 1.95891,-1.997037 2.0562,0.01563 1.05577,1.054117 0.99496,-0.0045 L 441,56 h 1.34879 l 1.0759,-1.653082 4.06649,0.05739 L 450.46056,50 h 2.10726 l -0.0595,-1.516508 0.0335,-3.181383 -2.08986,-1.734791 -2.07512,0.003 L 446.35397,46 H 443 l -1,1 h -1 l -1,-1 h -2.23975 l -2.25996,-2 -0.0275,3 L 431,48 c -2.54946,2 0,0 -2.54946,2 l -0.0205,2 h -2.92587 z"
           id="path334"
           sodipodi:nodetypes="ccccccccccccccccccccccccccccccccccc" />
      </g>
    </g>
  </g>
  <g
     class="wilaya"
     inkscape:groupmode="layer"
     id="41|Souk Ahras|سوق أهراس|ⵙⵓⵇ ⴰⵀⵔⴰⵙ|"
     inkscape:label="soukAhras"
     style="display:inline">
    <path
       style="fill:none;stroke:#000000;stroke-width:0.5px;stroke-linecap:butt;stroke-linejoin:miter;stroke-opacity:1"
       d="m 162.02352,-33.210726 -0.43742,0.437422 h -0.94534 v 0.942253 l -1.40316,1.403165 h -3.12372 v 1.369756 l 0.82687,0.826865 v 0.760047 h 1.22777 v 1.00226 h 1.20271 l 1.06073,-1.060725 h 1.92935 l 0.68905,-0.689054 h 1.59944 l 0.34871,0.348702 h 0.87071 v -2.424218 l 0.48443,-0.484426 v -1.419868 h -1.50339 l -0.29023,-0.50269 -0.91947,0.56465 -0.83716,-0.0041 10e-4,-0.628452 -0.38238,-0.436353 z"
       id="path117" />
  </g>
  <g
     class="wilaya"
     inkscape:groupmode="layer"
     id="24|Guelma|ڨالمة|ⴳⴰⵍⵎⴰ|"
     inkscape:label="guelma">
    <path
       style="fill:none;stroke:#000000;stroke-width:0.5px;stroke-linecap:butt;stroke-linejoin:miter;stroke-opacity:1"
       d="m 156.12224,-30.177321 -1.54098,1.540976 h -0.6807 l -0.60345,-0.603446 v -0.58674 l 0.31426,-0.314251 v -1.055505 l -0.9579,-0.957889 -0.0207,-0.48637 1.05833,-0.79375 v -1.058334 h 1.5875 l 0.79375,-0.79375 h 1.05833 l 0.26459,-0.264583 h 0.41101 l 0.004,0.651719 1.43755,0.0096 0.36729,-0.260672 h 0.42646 l 0.52917,0.529166 v 0.627311 l 1.45636,-0.0073 -0.003,0.790477 -0.43743,0.437422 h -0.94534 v 0.942253 l -1.40315,1.403164 h -3.12373 z"
       id="path314" />
  </g>
  <g
     class="wilaya"
     inkscape:groupmode="layer"
     id="25|Constantine|قسنطينة|ⵇⵙⵏⵟⵉⵏⴰ|"
     inkscape:label="constantine">
    <path
       style="fill:none;stroke:#000000;stroke-width:0.5px;stroke-linecap:butt;stroke-linejoin:miter;stroke-opacity:1"
       d="m 148.5592,-34.50932 v 0.555154 l -0.57878,0.578776 h -0.95675 v 1.299292 l 1.00991,1.009907 h 0.9036 -0.0472 v 1.340633 l 0.51381,0.51381 h 0.71461 l 0.84749,-0.847492 0.51677,0.516763 h 1.51781 l 0.29669,-0.284054 0.31426,-0.314251 v -1.055505 l -0.9579,-0.957889 -0.0207,-0.48637 h -0.52918 l -0.79375,-0.79375 v -0.685449 l -0.89594,0.0011 -0.42697,-0.373864 z"
       id="path332" />
  </g>
  <g
     class="wilaya"
     inkscape:groupmode="layer"
     id="04|Oum El Bouaghi|أم الـبـواقي|ⵓⵎ ⴻⵍ ⴱⵡⴰⵇⵉ|"
     inkscape:label="oum el bouaqi">
    <path
       style="fill:none;stroke:#000000;stroke-width:0.5px;stroke-linecap:butt;stroke-linejoin:miter;stroke-opacity:1"
       d="m 160.0166,-27.067914 1.16937,1.169366 v 1.689079 l -2.2029,2.202894 -2.4155,-2.415505 h -2.14974 l -0.9095,0.909505 -0.66146,-0.661458 h -1.92532 v -1.807197 h -2.57496 v -0.874072 h -3.14193 l 0.81501,-0.81501 h 1.47647 v -1.523716 l 0.51168,-0.511678 0.88216,-0.01984 0.51381,0.51381 h 0.71461 l 0.84749,-0.847492 0.51677,0.516763 h 1.51781 l 0.29664,-0.284054 v 0.58674 l 0.60345,0.603446 h 0.6807 l 1.54098,-1.540976 -0.008,1.11919 0.82687,0.826866 v 0.760047 h 1.22777 v 1.00226 h 1.20271 z"
       id="path337" />
  </g>
  <g
     class="wilaya"
     inkscape:groupmode="layer"
     id="43|Mila|ميلة|ⵎⵉⵍⴰ|"
     inkscape:label="mila">
    <path
       style="fill:none;stroke:#000000;stroke-width:0.5px;stroke-linecap:butt;stroke-linejoin:miter;stroke-opacity:1"
       d="m 145.20466,-26.855302 h -1.93713 l 0.69245,-0.681263 -0.0223,-1.128585 -0.75936,-0.708499 0.003,-1.127424 -1.83412,-2.891517 1.00756,-0.03312 1.0834,-1.106821 1.47814,-0.006 0.45479,0.437669 0.92172,-0.812366 1.23987,0.921856 0.47761,-0.501283 0.54858,-0.0167 v 0.555154 l -0.57878,0.578776 h -0.95675 v 1.299292 l 1.00991,1.009907 h 0.8564 v 1.340633 l -0.88216,0.01984 -0.51168,0.511677 v 1.523717 h -1.47647 z"
       id="path340" />
  </g>
  <g
     class="wilaya"
     inkscape:groupmode="layer"
     id="05|Batna|باتنة|ⵁⴱⴰⵝⵏⵜ|Bathenth"
     inkscape:label="batna">
    <path
       style="fill:none;stroke:#000000;stroke-width:0.5px;stroke-linecap:butt;stroke-linejoin:miter;stroke-opacity:1"
       d="m 137.58041,-24.121998 -1.48668,1.486689 h -2.82304 v 2.465461 l -1.43899,1.438987 h 2.62426 l 1.1822,1.182201 h 1.41639 l 0.46015,-0.460148 h 2.63453 l -1.67111,-1.671108 h 5.12014 l -1.46774,1.467739 1.14882,1.148821 h 1.92532 l 1.36426,-1.364258 h 1.35245 v 2.321009 l 1.14573,1.145742 v -2.279669 l -0.40432,-0.700312 v -1.87465 l 0.98082,-0.56628 v -2.221296 h 1.30158 l -0.0236,-1.570963 v -1.807197 h -2.57496 v -0.874072 h -3.14193 -1.93713 l -0.3897,0.362397 -0.90029,-0.83639 -1.04731,1.143357 0.0369,0.808167 -1.56834,0.02706 -1.14066,1.231241 z"
       id="path343" />
  </g>
  <g
     class="wilaya"
     inkscape:groupmode="layer"
     id="28|Msila|المسيلة|ⵜⴰⵎⵙⵉⵍⵜ|Tamsilt"
     inkscape:label="Msila">
    <path
       style="fill:none;stroke:#000000;stroke-width:0.5px;stroke-linecap:butt;stroke-linejoin:miter;stroke-opacity:1"
       d="m 121.25259,-27.039299 v 0.963573 l -1.14683,1.146826 v 1.853361 l 1.82438,1.824374 v 1.093128 l -1.6864,1.686401 v 2.518585 l 1.37741,1.37741 h 2.71214 v 2.780329 l 2.74033,2.7403266 0.68508,-0.685083 -1.23433,-1.2343256 v -1.116211 l 1.3613,-1.361305 h 1.99914 l 2.01668,-2.016678 h 2.59697 l -0.0425,-3.262273 h -2.62426 l 1.43899,-1.438987 v -2.465461 h 2.82304 l 1.48668,-1.486689 -1.17333,0.0013 -1.58838,-1.442455 -1.43556,-1.173663 -1.48652,0.03536 -0.36961,0.465206 -1.32239,0.05322 -0.58771,0.653071 -0.40361,0.01373 -0.003,-1.079487 0.55372,-0.657037 -1.02437,-0.872606 -0.4361,0.399769 -3.14443,0.04534 0.043,1.394079 -2.01706,0.03872 -0.93545,-0.845177 z"
       id="path346" />
  </g>
  <g
     class="wilaya"
     inkscape:groupmode="layer"
     id="12|Tébessa|تبسة|ⵜⵉⴱⵙⵜ|Tibest"
     inkscape:label="tebessa">
    <path
       style="fill:none;stroke:#000000;stroke-width:0.5px;stroke-linecap:butt;stroke-linejoin:miter;stroke-opacity:1"
       d="m 165.86922,-27.870035 -0.97768,1.693384 v 6.60659 l 1.80013,1.80013 v 3.678893 l -1.78933,1.789335 v 1.985849 l -2.74885,2.7488476 h -4.31906 l -2.32657,-2.326571 v -2.9279286 l 1.24681,-1.246809 v -2.728826 l -1.17947,0.680969 v -1.148691 l 1.27995,-1.279956 v -2.294774 l 1.63807,-1.638062 0.48985,0.47108 2.2029,-2.202894 v -1.689079 l -1.16937,-1.169366 0.41536,-0.461769 h 1.92935 l 0.68905,-0.689054 h 1.59944 l 0.34871,0.348702 z"
       id="path349" />
  </g>
  <g
     class="wilaya"
     inkscape:groupmode="layer"
     id="40|Khenchela|خنشلة|ⵅⴻⵏⵛⵍⴰ|"
     inkscape:label="khenshla">
    <path
       style="fill:none;stroke:#000000;stroke-width:0.5px;stroke-linecap:butt;stroke-linejoin:miter;stroke-opacity:1"
       d="m 155.50786,-9.8935774 h -1.98315 v 2.116783 l -3.04019,-3.0401916 v -2.839738 l 0.81835,-0.472477 v -1.598861 h -1.35289 l -0.88288,0.767199 v -2.279669 l -0.40432,-0.700312 v -1.87465 l 0.98082,-0.56628 v -2.221296 h 1.30158 l -0.0236,-1.570963 h 1.92532 l 0.66146,0.661458 0.9095,-0.909505 h 2.14974 l 1.92565,1.944425 -1.63807,1.638062 v 2.294774 l -1.27995,1.279956 v 1.148691 l 1.17947,-0.680969 v 2.728826 l -1.24681,1.246809 z"
       id="path352" />
  </g>
  <g
     class="wilaya"
     inkscape:groupmode="layer"
     id="26|Médéa|المدية|ⵍⵎⴷⵉⵢⵜ|Lmdiyat"
     inkscape:label="mediya">
    <path
       style="fill:none;stroke:#000000;stroke-width:0.5px;stroke-linecap:butt;stroke-linejoin:miter;stroke-opacity:1"
       d="m 111.88693,-30.931216 -0.89974,0.899736 v 0.837452 l 0.73764,0.737642 -2.28616,2.286167 v 0.897694 l -0.99219,0.992187 v 1.889879 h 2.7167 l 0.48428,0.484283 h 1.54734 l 1.43513,-1.435129 v -1.883973 h 0.95085 l 0.82682,0.826822 h 1.15755 l 0.8977,-0.897694 1.65955,1.659552 -0.0166,-1.292302 1.14683,-1.146826 v -0.963573 l -1.49251,-1.194038 1.28988,-1.97091 -0.54069,-0.546772 0.80734,-0.939652 -1.01025,-0.856194 -0.37287,0.374171 h -0.55317 l -0.87545,-1.130493 -0.13345,-0.0032 0.0157,0.40124 h -0.55754 l -0.78565,1.165307 -1.07593,-0.01519 -0.28466,0.437378 h -0.35687 l -0.13309,-0.153583 -0.26325,0.0013 -0.27934,-0.278903 -0.54403,-0.0041 -0.5183,0.528383 -1.05204,0.004 -0.24793,0.287692 z"
       id="path355" />
  </g>
  <g
     class="wilaya"
     inkscape:groupmode="layer"
     id="42|Tipaza|تيبازة|ⵜⵉⴼⵣⵣⴰ|"
     inkscape:label="tipaza">
    <path
       style="fill:none;stroke:#000000;stroke-width:0.5px;stroke-linecap:butt;stroke-linejoin:miter;stroke-opacity:1"
       d="m 110.82859,-31.743411 h -5.24056 l -0.40258,-0.402579 h -0.80222 l -0.73184,0.73184 -0.68557,-0.68557 0.35436,-0.354353 v -1.204799 h 2.14974 l 0.63783,-0.637836 h 3.37816 l 0.2953,0.295296 h 2.42141 l 1.38976,-1.284968 -0.0255,0.529167 0.30448,0.264583 -0.007,0.79375 -1.18342,0.264584 -0.67455,0.529166 -0.005,0.529167 h -0.77414 z"
       id="path358" />
  </g>
  <g
     class="wilaya"
     inkscape:groupmode="layer"
     id="02|Chlef|الشلف|ⵛⵛⵍⴼ|"
     inkscape:label="Chlef">
    <path
       style="fill:none;stroke:#000000;stroke-width:0.5px;stroke-linecap:butt;stroke-linejoin:miter;stroke-opacity:1"
       d="m 103.32018,-33.658872 h -2.52772 l -0.850447,0.850445 h -2.763948 l -1.523717,1.523717 h -1.665457 v 2.01981 h 1.984375 v 1.41741 l 1.110305,1.110306 h 1.913502 l 1.086687,1.086683 1.79538,-1.795388 1.11031,1.110305 0.80319,-0.803198 -1.68908,-1.689082 0.86226,-0.862258 -1.22842,-1.228424 1.22842,-1.181174 0.35436,-0.354353 z"
       id="path361" />
  </g>
  <g
     class="wilaya"
     inkscape:groupmode="layer"
     id="44|Aïn Defla|عين الدفلى|ⵜⴰⵍⵓⵍⴰ|talelu"
     inkscape:label="Khemis">
    <path
       style="fill:none;stroke:#000000;stroke-width:0.5px;stroke-linecap:butt;stroke-linejoin:miter;stroke-opacity:1"
       d="m 109.43867,-26.170219 h -1.0491 l -0.6505,-0.6505 h -2.0222 l -0.89416,0.894168 -1.03007,-1.212231 -1.68908,-1.689082 0.86226,-0.862258 -1.22842,-1.228424 1.22842,-1.181174 0.68557,0.68557 0.73184,-0.73184 h 0.80222 l 0.40258,0.402579 5.60587,-0.0011 -0.003,0.303287 0.69642,0.510098 -0.89974,0.899737 v 0.837451 l 0.73764,0.737642 z"
       id="path364" />
  </g>
  <g
     class="wilaya"
     inkscape:groupmode="layer"
     id="27|Mostaganem|مستغانم|ⵎⵓⵚⵟⵖⴰⵍⵉⵎ|"
     inkscape:label="Monstaganem">
    <path
       style="fill:none;stroke:#000000;stroke-width:0.5px;stroke-linecap:butt;stroke-linejoin:miter;stroke-opacity:1"
       d="m 93.988891,-31.28471 -1.860352,1.860351 h -1.44694 l -2.961798,2.961799 v 1.02467 l -1.117688,1.117688 h 3.418028 l 0.594278,-0.594281 h 0.752263 l 0.76961,-0.769609 v -1.336575 h 1.828977 l -0.911368,-1.578533 0.93499,-0.6657 z"
       id="path367" />
  </g>
  <g
     class="wilaya"
     inkscape:groupmode="layer"
     id="07|Biskra|بسكرة|ⴱⵉⵙⴽⵔⴰ|"
     inkscape:label="biskra">
    <path
       style="fill:none;stroke:#000000;stroke-width:0.5px;stroke-linecap:butt;stroke-linejoin:miter;stroke-opacity:1"
       d="m 150.48452,-10.816986 -0.85192,0.8519216 h -1.5201 l -1.27788,-1.2778816 h -7.37497 l -1.07325,-1.073254 -2.21751,2.217502 2.20498,2.2049716 -1.75396,1.753957 v 6.24742599 l -1.40316,-1.40316499 v -1.403167 l -8.07167,-4.660178 -0.0715,-1.696132 0.68508,-0.685083 -1.23433,-1.2343256 v -1.116211 l 1.3613,-1.361305 h 1.99914 l 2.01668,-2.016678 h 2.59697 l -0.0425,-3.262273 1.1822,1.182201 h 1.41639 l 0.46015,-0.460148 h 2.63453 l -1.67111,-1.671108 h 5.12014 l -1.46774,1.467739 1.14882,1.148821 h 1.92532 l 1.36426,-1.364258 h 1.35245 v 2.321009 l 1.14573,1.145742 0.88288,-0.767199 h 1.35289 v 1.598861 l -0.81835,0.472477 z"
       id="path370" />
  </g>
  <g
     class="wilaya"
     inkscape:groupmode="layer"
     id="55|Touggourt|تڨرت|ⵜⵓⴳⵓⵔⵜ|"
     inkscape:label="Tougourt">
    <path
       style="fill:none;stroke:#000000;stroke-width:0.5px;stroke-linecap:butt;stroke-linejoin:miter;stroke-opacity:1"
       d="m 144.59045,0.09912359 h -3.15301 V 7.0299376 l 1.84751,1.8475 h 1.89427 V 13.15709 l 4.30304,2.291836 h 2.33861 l 2.05422,2.054223 2.85785,-0.04083 -6.27205,-6.272038 V 4.1151266 l -2.65174,-2.651829 v -6.892161 l -3.2187,8.8e-5 z"
       id="path493" />
  </g>
  <g
     class="wilaya"
     inkscape:groupmode="layer"
     id="39|El Oued|الوادي|ⵍⵡⴰⴷ|"
     inkscape:label="Eloued">
    <path
       style="fill:none;stroke:#000000;stroke-width:0.5px;stroke-linecap:butt;stroke-linejoin:miter;stroke-opacity:1"
       d="m 144.60492,-11.242981 v 2.9678466 l 0.9387,0.541962 v 1.054232 l 0.46349,0.463487 v 0.787119 l 1.80204,-5.29e-4 v 6.892158 l 2.65174,2.651741 v 7.0752424 l 6.27205,6.272038 h 15.61514 l -4.84282,-4.842817 v -2.468655 h -1.83083 L 160.25284,4.7292446 V 2.1542826 L 158.29209,0.19353259 V -6.0791824 h 2.37349 l 1.48791,-1.487911 h -4.31906 l -2.32657,-2.326571 h -1.98315 v 2.116783 l -3.04019,-3.0402256 -0.85192,0.8519206 h -1.5201 l -1.27788,-1.2778816 z"
       id="path488" />
  </g>
  <g
     class="wilaya"
     inkscape:groupmode="layer"
     id="57|El Meghaïer|المغير|ⵎⵖⴰⵢⴻⵔ|"
     inkscape:label="El M'Ghair">
    <path
       style="fill:none;stroke:#000000;stroke-width:0.5px;stroke-linecap:butt;stroke-linejoin:miter;stroke-opacity:1"
       d="m 139.45965,-11.242981 h 5.14527 v 2.9678466 l 0.9387,0.541962 v 1.054232 l 0.46349,0.463487 v 0.787119 l -1.41666,-5.29e-4 v 5.52789999 l -7.97054,0.0085 V -6.1398434 l 1.75396,-1.753992 -2.20498,-2.2049706 2.21751,-2.217468 z"
       id="path485" />
  </g>
  <g
     class="wilaya"
     inkscape:groupmode="layer"
     id="17|Djelfa|الجلفة|ⴵⵍⴼⴰ|Ǧelfa"
     inkscape:label="djelfa">
    <path
       style="fill:none;stroke:#000000;stroke-width:0.5px;stroke-linecap:butt;stroke-linejoin:miter;stroke-opacity:1"
       d="m 135.21675,-1.2955084 -1.63703,1.50338899 V 5.5532716 h -0.83202 l -6.98009,-6.934293 h -2.2105 l -7.75817,-7.758173 -1.99716,0.193095 -1.43658,1.436574 h -2.10474 v -7.1160496 l 2.3052,-2.305201 v -3.107008 h -2.03794 l -0.73499,0.734992 -3.05689,-3.056896 1.71064,-0.03077 h 2.7167 l 0.48428,0.484283 h 1.54734 l 1.43513,-1.435129 v -1.883973 h 0.95085 l 0.82682,0.826822 h 1.15755 l 0.8977,-0.897694 1.65955,1.659552 -0.0166,0.561059 1.82438,1.824374 v 1.093128 l -1.6864,1.686401 v 2.518585 l 1.37741,1.37741 h 2.71214 v 2.780329 l 2.74033,2.7403266 0.0715,1.696132 8.07167,4.660178 z"
       id="path380"
       sodipodi:nodetypes="ccccccccccccccccccccccccccccccccccccccc" />
  </g>
</svg>
